<svg width="800" height="800" viewBox="0 0 800 800" fill="none" xmlns="http://www.w3.org/2000/svg">
    <g clip-path="url(#clip0_1_3)">
        <path d="M120 800H680C711.826 800 742.348 787.357 764.853 764.853C787.357 742.348 800 711.826 800 680V120C800 88.174 787.357 57.6516 764.853 35.1472C742.348 12.6428 711.826 0 680 0H120C88.174 0 57.6516 12.6428 35.1472 35.1472C12.6428 57.6516 0 88.174 0 120V680C0 711.826 12.6428 742.348 35.1472 764.853C57.6516 787.357 88.174 800 120 800ZM80 120C80 109.391 84.2143 99.2172 91.7157 91.7157C99.2172 84.2143 109.391 80 120 80H680C690.609 80 700.783 84.2143 708.284 91.7157C715.786 99.2172 720 109.391 720 120V680C720 690.609 715.786 700.783 708.284 708.284C700.783 715.786 690.609 720 680 720H120C109.391 720 99.2172 715.786 91.7157 708.284C84.2143 700.783 80 690.609 80 680V120ZM280 640C290.609 640 300.783 635.786 308.284 628.284C315.786 620.783 320 610.609 320 600V480H400C442.435 480 483.131 463.143 513.137 433.137C543.143 403.131 560 362.435 560 320C560 277.565 543.143 236.869 513.137 206.863C483.131 176.857 442.435 160 400 160H280C269.391 160 259.217 164.214 251.716 171.716C244.214 179.217 240 189.391 240 200V600C240 610.609 244.214 620.783 251.716 628.284C259.217 635.786 269.391 640 280 640ZM320 240H400C421.217 240 441.566 248.429 456.569 263.431C471.571 278.434 480 298.783 480 320C480 341.217 471.571 361.566 456.569 376.569C441.566 391.571 421.217 400 400 400H320V240Z"
              fill="white"/>
    </g>
    <defs>
        <clipPath id="clip0_1_3">
            <rect width="800" height="800" fill="currentColor"/>
        </clipPath>
    </defs>
</svg>
